<svg width="200" height="200" viewBox="0 0 200 200" fill="none" xmlns="http://www.w3.org/2000/svg">
  <path fill-rule="evenodd" clip-rule="evenodd" d="M68.9992 87.5394C70.7822 90.4095 73.2718 92.7949 76.2249 94.4525C53.7944 117.643 38.1653 147.036 30.3875 168.224L21 164.778C29.1151 142.671 45.3728 111.981 68.9992 87.5394ZM76.2771 59.5183C73.3131 61.1704 70.8128 63.5544 69.0208 66.4259L35.5904 35.3211L42.4023 28L76.2771 59.5183ZM97.7679 93.1732L174.663 164.719L181.475 157.398L104.137 85.4403C102.698 88.5277 100.494 91.1866 97.7679 93.1732ZM183.792 62.4204C153.696 52.7283 127.387 58.0773 105.15 71.2133C104.16 67.9328 102.35 65.0079 99.9589 62.6769C124.208 48.3234 153.414 42.1319 186.858 52.9018L183.792 62.4204ZM86.0001 92C94.2843 92 101 85.2843 101 77C101 68.7157 94.2843 62 86.0001 62C77.7158 62 71.0001 68.7157 71.0001 77C71.0001 85.2843 77.7158 92 86.0001 92Z" fill="#282828"/>
  </svg>
  